<?xml version="1.0" encoding="UTF-8"?>
<svg xmlns="http://www.w3.org/2000/svg" xmlns:xlink="http://www.w3.org/1999/xlink" width="15px" height="15px" viewBox="0 0 15 15" version="1.1">
<g id="surface1">
<path style="fill-rule:nonzero;fill:rgb(56.470588%,10.980392%,10.980392%);fill-opacity:1;stroke-width:7.168;stroke-linecap:butt;stroke-linejoin:miter;stroke:rgb(56.470588%,10.980392%,10.980392%);stroke-opacity:1;stroke-miterlimit:4;" d="M 373.648 29.672 C 372.584 29.672 371.672 29.672 370.76 29.824 C 313.608 30.888 276.672 59.008 256 93.208 C 235.328 59.008 198.392 30.888 141.24 29.824 C 140.328 29.672 139.264 29.672 138.352 29.672 C 99.896 29.672 64.784 45.176 39.856 73.296 C 13.864 102.632 0.032 143.824 0.032 192.312 C 0.032 287.616 76.336 345.68 150.208 401.92 C 178.784 423.504 208.272 446 233.808 470.624 L 234.872 472.144 C 240.04 478.376 247.336 482.024 255.24 482.176 L 256 482.328 L 256.912 482.176 C 264.664 482.024 271.96 478.376 277.128 472.144 L 278.192 470.624 C 303.728 446 333.216 423.504 361.792 401.92 C 435.664 345.68 511.968 287.616 511.968 192.312 C 511.968 96.552 455.12 29.672 373.648 29.672 Z M 371.368 357.688 C 334.28 386.72 293.24 415.6 257.672 449.8 C 257.064 450.56 256.456 451.016 256 451.624 C 255.544 451.016 254.936 450.56 254.328 449.8 C 206.904 404.2 149.752 368.024 105.216 328.656 C 82.872 309.048 63.72 288.68 50.344 266.488 C 36.968 244.296 29.216 220.432 29.216 192.312 C 29.216 148.08 41.984 114.792 61.744 92.6 C 81.352 70.408 108.256 58.856 138.352 58.856 L 140.632 58.856 C 174.376 59.616 198.544 71.624 215.72 88.648 C 232.744 105.672 242.776 128.168 246.424 149.6 C 247.184 154.312 251.288 157.656 256 157.656 C 260.712 157.656 264.816 154.312 265.576 149.6 C 269.224 128.168 279.256 105.672 296.28 88.648 C 313.456 71.624 337.624 59.616 371.368 58.856 L 373.648 58.856 C 403.744 58.856 430.648 70.408 450.408 92.6 C 470.016 114.792 482.784 148.08 482.784 192.312 C 482.784 220.432 475.032 244.296 461.656 266.488 C 441.592 299.776 408.608 328.808 371.368 357.688 Z M 371.368 357.688 " transform="matrix(0.025699,0,0,0.025699,0.921053,0.921053)"/>
</g>
</svg>
